# xmcd
#
# Track frame offsets:
#	150
#	12648
#	26325
#	39423
#	49583
#	60615
#	72825
#	86475
#	98788
#	111060
#	121383
#	134475
#	147423
#	157040
#	169005
#	177193
#	188085
#	199340
#	212550
#	223128
#
# Disc length: 3110 seconds
#
# Revision: 1
# Processed by: cddbd v1.5.1PL0 Copyright (c) Steve Scherf et al.
# Submitted via: MusicWizard 7.1.1b
#
DISCID=220c2414
DTITLE=Ruth Brown - Miss Rhythm (Greatest Hits And More), Disc 2
DYEAR=1989
DGENRE=Rhythm and Blues
TTITLE0=Ever Since My Baby´s Been Gone
TTITLE1=Love Contest
TTITLE2=Oh What A Dream
TTITLE3=Old Man River
TTITLE4=Somebody Touched Me
TTITLE5=Mambo Baby
TTITLE6=I Can See Everybody´s Baby
TTITLE7=As Long As I´m Moving
TTITLE8=It´s Love Baby
TTITLE9=I Gotta Have You
TTITLE10=Love Has Joined Us Together
TTITLE11=I Wanna Do More
TTITLE12=Lucky Lips
TTITLE13=One More Time
TTITLE14=This Little Girl´s Gone Rockin´
TTITLE15=Why Me
TTITLE16=I Can´t Hear A Word You Say
TTITLE17=I Don´t Know
TTITLE18=Takin´ Care Of Business
TTITLE19=Don´t Deceive Me
EXTD=
EXTT0=
EXTT1=
EXTT2=Yesterday: 18.08.1995
EXTT3=
EXTT4=
EXTT5=
EXTT6=
EXTT7=
EXTT8=
EXTT9=
EXTT10=
EXTT11=
EXTT12=Yesterday: 15.09.1995
EXTT13=
EXTT14=Yesterday: 23.06.1995
EXTT15=
EXTT16=
EXTT17=
EXTT18=Yesterday: 07.02.1997
EXTT19=
PLAYORDER=
